<svg width="20" height="20" viewBox="0 0 20 20" fill="none" xmlns="http://www.w3.org/2000/svg">
<path fill-rule="evenodd" clip-rule="evenodd" d="M20 6.293C20 9.769 17.17 12.587 13.68 12.587C13.044 12.587 11.594 12.441 10.889 11.855L10.007 12.733C9.48796 13.25 9.62796 13.402 9.85896 13.652C9.95496 13.757 10.067 13.878 10.154 14.051C10.154 14.051 10.889 15.075 10.154 16.1C9.71296 16.685 8.47796 17.504 7.06796 16.1L6.77396 16.392C6.77396 16.392 7.65496 17.417 6.92096 18.442C6.47996 19.027 5.30396 19.612 4.27496 18.588L3.24696 19.612C2.54096 20.315 1.67896 19.905 1.33696 19.612L0.453957 18.734C-0.369043 17.914 0.110957 17.026 0.453957 16.684L8.09596 9.074C8.09596 9.074 7.36096 7.904 7.36096 6.294C7.36096 2.818 10.191 0 13.681 0C17.171 0 20 2.818 20 6.293ZM13.681 8.489C14.2643 8.49006 14.8241 8.25943 15.2374 7.84782C15.6507 7.4362 15.8836 6.8773 15.885 6.294C15.8844 6.00509 15.827 5.71912 15.716 5.4524C15.6049 5.18568 15.4424 4.94345 15.2378 4.73954C15.0331 4.53562 14.7903 4.37401 14.5232 4.26393C14.256 4.15386 13.9699 4.09747 13.681 4.098C13.392 4.09747 13.1059 4.15386 12.8387 4.26393C12.5716 4.37401 12.3288 4.53562 12.1241 4.73954C11.9195 4.94345 11.757 5.18568 11.646 5.4524C11.5349 5.71912 11.4775 6.00509 11.477 6.294C11.4783 6.8773 11.7112 7.4362 12.1245 7.84782C12.5378 8.25943 13.0977 8.49006 13.681 8.489Z" fill="white"/>
</svg>
