<svg width="41" height="10" viewBox="0 0 41 10" fill="none" xmlns="http://www.w3.org/2000/svg">
<path d="M4.108 8.976C4.124 8.84 4.14 8.708 4.156 8.58C4.172 8.452 4.188 8.324 4.204 8.196L4.276 7.524C4.284 7.412 4.292 7.308 4.3 7.212C4.308 7.116 4.316 7.028 4.324 6.948H3.28L2.8 8.676C2.624 8.7 2.416 8.728 2.176 8.76C1.936 8.784 1.712 8.808 1.504 8.832C1.376 8.848 1.248 8.864 1.12 8.88C1 8.896 0.876 8.912 0.748 8.928L1.696 5.784C1.808 5.408 1.936 4.98 2.08 4.5C2.224 4.02 2.368 3.528 2.512 3.024C2.664 2.52 2.804 2.048 2.932 1.608C3.068 1.16 3.176 0.783999 3.256 0.48C3.8 0.44 4.352 0.391999 4.912 0.335999C5.48 0.279999 6.032 0.204 6.568 0.107999C6.528 0.555999 6.488 1.064 6.448 1.632C6.416 2.192 6.384 2.772 6.352 3.372C6.328 3.972 6.3 4.564 6.268 5.148C6.252 5.7 6.232 6.272 6.208 6.864C6.184 7.448 6.16 8.048 6.136 8.664C6.016 8.68 5.896 8.696 5.776 8.712C5.656 8.728 5.536 8.744 5.416 8.76C5.216 8.792 4.996 8.828 4.756 8.868C4.516 8.908 4.3 8.944 4.108 8.976ZM3.568 5.748C3.616 5.748 3.704 5.744 3.832 5.736C3.968 5.728 4.096 5.72 4.216 5.712C4.336 5.704 4.408 5.7 4.432 5.7C4.432 5.596 4.448 5.384 4.48 5.064C4.512 4.744 4.544 4.408 4.576 4.056C4.592 3.848 4.608 3.636 4.624 3.42C4.648 3.196 4.672 2.968 4.696 2.736L4.768 1.692L4.588 1.704L4.312 2.736L3.568 5.748ZM6.23941 9.012L6.86341 5.892C6.95941 5.316 7.06341 4.724 7.17541 4.116C7.28741 3.508 7.39141 2.908 7.48741 2.316C7.59141 1.724 7.67141 1.168 7.72741 0.648C8.18341 0.503999 8.67541 0.399999 9.20341 0.335999C9.73141 0.264 10.2554 0.228 10.7754 0.228C11.3834 0.228 11.7954 0.36 12.0114 0.624C12.2354 0.888 12.3474 1.244 12.3474 1.692C12.3474 2.1 12.2514 2.512 12.0594 2.928C11.8674 3.336 11.6154 3.708 11.3034 4.044C10.9994 4.372 10.6634 4.632 10.2954 4.824C10.4394 5.144 10.5914 5.496 10.7514 5.88C10.9194 6.256 11.0754 6.616 11.2194 6.96C11.2994 7.16 11.3794 7.36 11.4594 7.56C11.5474 7.76 11.6314 7.96 11.7114 8.16L9.85141 8.808L9.41941 7.368C9.29941 6.968 9.18741 6.584 9.08341 6.216C8.98741 5.84 8.93141 5.576 8.91541 5.424L8.75941 5.472C8.73541 5.6 8.70741 5.74 8.67541 5.892C8.65141 6.036 8.62341 6.196 8.59141 6.372C8.55941 6.548 8.52741 6.72 8.49541 6.888C8.46341 7.048 8.43141 7.208 8.39941 7.368L8.18341 8.508L6.23941 9.012ZM9.05941 3.804C9.20341 3.788 9.37941 3.728 9.58741 3.624C9.80341 3.512 10.0154 3.376 10.2234 3.216C10.4394 3.056 10.6194 2.892 10.7634 2.724C10.9074 2.556 10.9794 2.408 10.9794 2.28C10.9794 2.12 10.8834 2.016 10.6914 1.968C10.5074 1.912 10.2634 1.884 9.95941 1.884H9.69541C9.64741 1.892 9.60341 1.896 9.56341 1.896C9.52341 1.896 9.48341 1.896 9.44341 1.896L9.05941 3.804ZM13.7074 9.024C13.2034 9.024 12.7914 8.788 12.4714 8.316C12.1514 7.844 11.9914 7.196 11.9914 6.372C11.9914 5.62 12.0954 4.88 12.3034 4.152C12.5114 3.416 12.8034 2.756 13.1794 2.172C13.5554 1.588 13.9994 1.12 14.5114 0.767999C15.0314 0.408 15.6034 0.228 16.2274 0.228C16.6194 0.228 16.9554 0.38 17.2354 0.684C17.5154 0.988 17.6554 1.396 17.6554 1.908V2.052C17.6554 2.084 17.6554 2.112 17.6554 2.136C17.6554 2.16 17.6514 2.188 17.6434 2.22L16.0714 2.64C15.9754 2.44 15.8634 2.34 15.7354 2.34C15.5434 2.34 15.3394 2.496 15.1234 2.808C14.9154 3.12 14.7154 3.492 14.5234 3.924C14.3954 4.212 14.2794 4.508 14.1754 4.812C14.0794 5.116 14.0034 5.4 13.9474 5.664C13.8914 5.928 13.8634 6.144 13.8634 6.312C13.8634 6.56 13.8994 6.74 13.9714 6.852C14.0274 6.956 14.1154 7.008 14.2354 7.008C14.3554 7.008 14.4874 6.952 14.6314 6.84C14.7754 6.72 14.9074 6.572 15.0274 6.396C15.1554 6.22 15.2394 6.044 15.2794 5.868L16.6474 6.42C16.2554 7.316 15.7874 7.976 15.2434 8.4C14.7074 8.816 14.1954 9.024 13.7074 9.024ZM16.5882 9.024C16.8202 7.904 17.0362 6.812 17.2362 5.748C17.3482 5.1 17.4602 4.444 17.5722 3.78C17.6922 3.116 17.8002 2.48 17.8962 1.872C17.9922 1.264 18.0642 0.72 18.1122 0.24C18.3282 0.248 18.5042 0.26 18.6402 0.275999C18.7842 0.284 18.9162 0.292 19.0362 0.3C19.1642 0.308 19.3042 0.316 19.4562 0.323999C19.6162 0.323999 19.8162 0.323999 20.0562 0.323999C19.9202 0.892 19.7842 1.46 19.6482 2.028C19.5202 2.596 19.4002 3.168 19.2882 3.744L20.4762 3.612C20.5322 3.332 20.5842 3.056 20.6322 2.784C20.6882 2.504 20.7362 2.228 20.7762 1.956C20.8162 1.692 20.8642 1.424 20.9202 1.152C20.9842 0.872 21.0522 0.592 21.1242 0.312C21.4122 0.264 21.7042 0.228 22.0002 0.204C22.2962 0.171999 22.5442 0.151999 22.7442 0.144C22.9442 0.128 23.0442 0.12 23.0442 0.12C22.9402 0.44 22.8362 0.816 22.7322 1.248C22.6282 1.68 22.5282 2.136 22.4322 2.616C22.3362 3.096 22.2442 3.576 22.1562 4.056C22.0682 4.528 21.9882 4.968 21.9162 5.376C21.8282 5.888 21.7442 6.404 21.6642 6.924C21.5842 7.436 21.5042 7.96 21.4242 8.496L19.5522 8.712C19.6082 8.472 19.6562 8.236 19.6962 8.004C19.7442 7.764 19.7882 7.532 19.8282 7.308C19.9082 6.924 19.9882 6.524 20.0682 6.108C20.1562 5.692 20.2242 5.336 20.2722 5.04L19.1082 5.148C19.0762 5.3 19.0442 5.464 19.0122 5.64C18.9882 5.816 18.9562 6.004 18.9162 6.204C18.8762 6.404 18.8362 6.6 18.7962 6.792C18.7642 6.976 18.7322 7.16 18.7002 7.344C18.6602 7.56 18.6162 7.776 18.5682 7.992C18.5202 8.208 18.4762 8.424 18.4362 8.64L16.5882 9.024ZM21.8491 8.988C21.9611 8.524 22.0731 8 22.1851 7.416C22.2971 6.824 22.4091 6.212 22.5211 5.58C22.6331 4.948 22.7371 4.34 22.8331 3.756C22.9211 3.244 23.0051 2.724 23.0851 2.196C23.1731 1.668 23.2571 1.136 23.3371 0.599999L25.2091 0.3L24.6691 3.456C24.5491 4.2 24.4411 4.868 24.3451 5.46C24.2571 6.052 24.1691 6.612 24.0811 7.14C24.0011 7.668 23.9171 8.208 23.8291 8.76C23.6771 8.76 23.4931 8.772 23.2771 8.796C23.0611 8.812 22.8451 8.836 22.6291 8.868C22.4131 8.892 22.2291 8.916 22.0771 8.94C21.9331 8.964 21.8571 8.98 21.8491 8.988ZM24.3588 9.024C24.4468 8.392 24.5388 7.756 24.6348 7.116C24.7388 6.476 24.8428 5.86 24.9468 5.268C25.0588 4.668 25.1628 4.128 25.2588 3.648C25.3628 3.128 25.4668 2.6 25.5708 2.064C25.6748 1.528 25.7828 0.987999 25.8948 0.443999L27.9948 0.167999L27.3708 2.88C27.2588 3.352 27.1428 3.86 27.0228 4.404C26.9108 4.94 26.8068 5.46 26.7108 5.964C26.6148 6.468 26.5388 6.916 26.4828 7.308C26.6828 7.292 26.8948 7.284 27.1188 7.284C27.3508 7.276 27.5548 7.272 27.7308 7.272C27.7388 7.456 27.7548 7.652 27.7788 7.86C27.8028 8.06 27.8268 8.236 27.8508 8.388C27.8828 8.532 27.8988 8.612 27.8988 8.628C27.8668 8.628 27.8348 8.628 27.8028 8.628C27.7788 8.628 27.7508 8.624 27.7188 8.616H27.5268C27.2148 8.616 26.8668 8.632 26.4828 8.664C26.1068 8.688 25.7308 8.732 25.3548 8.796C24.9868 8.852 24.6548 8.928 24.3588 9.024ZM30.0079 9.048C29.4799 9.048 29.0479 8.844 28.7119 8.436C28.3759 8.028 28.2079 7.412 28.2079 6.588C28.2079 6.132 28.2639 5.652 28.3759 5.148C28.4879 4.644 28.6439 4.148 28.8439 3.66C29.0439 3.172 29.2759 2.72 29.5399 2.304C29.9639 1.632 30.4519 1.084 31.0039 0.659999C31.5559 0.236 32.1359 0.0239997 32.7439 0.0239997C33.2239 0.0239997 33.5919 0.148 33.8479 0.396C34.1119 0.636 34.2959 0.947999 34.3999 1.332C34.5039 1.708 34.5559 2.1 34.5559 2.508C34.5559 3.46 34.4079 4.348 34.1119 5.172C33.8239 5.988 33.4479 6.68 32.9839 7.248C32.5199 7.832 32.0239 8.28 31.4959 8.592C30.9759 8.896 30.4799 9.048 30.0079 9.048ZM30.6559 7.068C31.0159 7.068 31.3319 6.948 31.6039 6.708C31.8839 6.468 32.1199 6.164 32.3119 5.796C32.5039 5.42 32.6479 5.028 32.7439 4.62C32.8399 4.212 32.8879 3.844 32.8879 3.516C32.8879 3.388 32.8759 3.252 32.8519 3.108C32.8279 2.956 32.7759 2.824 32.6959 2.712C32.6159 2.6 32.4919 2.544 32.3239 2.544C31.9559 2.544 31.6239 2.68 31.3279 2.952C31.0319 3.216 30.7839 3.552 30.5839 3.96C30.3839 4.376 30.2359 4.784 30.1399 5.184C30.0439 5.584 29.9959 5.948 29.9959 6.276C29.9959 6.444 30.0559 6.62 30.1759 6.804C30.2959 6.98 30.4559 7.068 30.6559 7.068ZM36.4299 9.288C36.1339 9.288 35.8499 9.224 35.5779 9.096C35.3139 8.968 35.0859 8.772 34.8939 8.508C34.6939 8.252 34.5379 7.928 34.4259 7.536C34.3139 7.144 34.2579 6.684 34.2579 6.156C34.2579 5.124 34.4059 4.224 34.7019 3.456C34.9979 2.688 35.3739 2.048 35.8299 1.536C36.2779 1.024 36.7579 0.644 37.2699 0.396C37.7899 0.148 38.2739 0.0239997 38.7219 0.0239997C39.1539 0.0239997 39.5059 0.12 39.7779 0.312C40.0499 0.496 40.2499 0.743999 40.3779 1.056C40.5059 1.368 40.5699 1.716 40.5699 2.1L38.9259 2.412C38.8539 2.092 38.7579 1.864 38.6379 1.728C38.5179 1.592 38.3819 1.524 38.2299 1.524C38.0539 1.524 37.8699 1.62 37.6779 1.812C37.4939 2.004 37.3099 2.264 37.1259 2.592C36.9499 2.912 36.7899 3.272 36.6459 3.672C36.5019 4.072 36.3819 4.484 36.2859 4.908C36.1979 5.332 36.1459 5.732 36.1299 6.108C36.1299 6.604 36.2019 6.96 36.3459 7.176C36.4979 7.384 36.6899 7.488 36.9219 7.488C37.1459 7.488 37.3659 7.416 37.5819 7.272C37.8059 7.128 37.9899 6.936 38.1339 6.696C38.2859 6.448 38.3659 6.172 38.3739 5.868L37.0899 6.06L37.3179 4.872L38.4219 4.728C38.7259 4.688 39.0459 4.64 39.3819 4.584C39.7259 4.528 40.0259 4.476 40.2819 4.428C40.2259 5.244 40.0659 5.96 39.8019 6.576C39.5459 7.184 39.2259 7.688 38.8419 8.088C38.4579 8.488 38.0539 8.788 37.6299 8.988C37.2139 9.188 36.8139 9.288 36.4299 9.288Z" fill="white"/>
</svg>
